<?xml version="1.0" encoding="UTF-8"?>
<svg width="185px" height="148px" viewBox="0 0 185 148" version="1.1" xmlns="http://www.w3.org/2000/svg" xmlns:xlink="http://www.w3.org/1999/xlink">
    <title>Group 32</title>
    <g id="Venom" stroke="none" stroke-width="1" fill="none" fill-rule="evenodd">
        <g id="Artboard-Copy-2" transform="translate(-65.000000, -53.000000)">
            <g id="Group-32" transform="translate(65.000000, 53.000000)">
                <path d="M139.436805,115.359608 C135.362801,114.049241 135.234374,118.234938 132.989272,119.636165 C132.127857,118.50941 131.520919,117.12238 130.459728,116.49772 C129.448956,115.902873 127.96443,116.103522 126.173106,115.893882 C128.69171,120.116017 132.828976,122.796851 131.471926,128.070025 C132.813755,127.861805 133.707039,127.722676 134.864313,127.542849 C133.513446,122.347758 137.503258,119.333772 139.436805,115.359608 L139.436805,115.359608 Z M92.1032133,117.414362 L92.1032133,129.901415 L95.2330372,129.901415 C95.3410113,128.434883 95.4366184,127.142499 95.5279446,125.905482 C100.496659,125.104308 100.598449,125.170087 101.475086,129.640667 L104.806588,129.640667 C104.557344,127.785615 104.315234,126.178535 104.136863,124.564356 C104.056952,123.838898 103.879057,123.008857 104.134009,122.382304 C105.141926,119.904485 104.215346,117.695932 101.595427,117.475881 C98.4817753,117.214187 95.3295956,117.414362 92.1032133,117.414362 L92.1032133,117.414362 Z M86.7282879,120.458634 L86.7282879,117.261509 C83.4633774,117.261509 80.3268944,117.219865 77.1942166,117.312618 C76.791335,117.324449 76.0792763,118.021986 76.0692875,118.416658 C75.9793883,121.867432 75.9703508,125.322939 76.0745197,128.773241 C76.0878381,129.217128 76.8721967,129.996534 77.3207414,130.01215 C80.4543705,130.120993 83.5937075,130.069884 86.8419699,130.069884 L86.8419699,126.522098 L79.6357646,126.522098 C79.6105547,126.249519 79.5848693,125.977413 79.5591838,125.705307 C80.0576724,125.547722 80.5504532,125.281769 81.0560767,125.254795 C82.236182,125.191855 83.4229465,125.232553 84.6068571,125.252902 C85.7536664,125.272777 86.7953555,125.379727 86.7858424,123.642509 C86.7768049,121.990472 85.858311,121.920907 84.6468123,121.944095 C82.9962821,121.975801 81.3448006,121.95214 79.6933191,121.95214 C79.678098,121.559361 79.6633527,121.166582 79.6481316,120.77333 C81.9488851,120.671113 84.2496386,120.568896 86.7282879,120.458634 L86.7282879,120.458634 Z M52.7806393,125.66177 C50.1464501,125.314421 47.8009849,125.004931 45.4555196,124.69544 C45.5092689,124.33626 45.5630181,123.97708 45.6167674,123.617901 C47.2810917,123.737627 48.9439889,123.87297 50.6092645,123.971875 C52.4229451,124.079771 53.1906557,123.239319 52.5019042,121.627979 C52.2659783,121.076669 51.2295214,120.680105 50.500339,120.558012 C48.8674082,120.284486 47.1978517,120.228172 45.5430405,120.082892 C45.5625425,119.755891 45.5825201,119.428418 45.602022,119.100945 C47.8837492,119.204108 50.1654764,119.306798 53.1464196,119.441668 C52.6308073,118.030504 52.396784,116.300858 51.9073328,116.226561 C48.6738157,115.733458 45.385598,115.596695 41.8633571,115.324589 C41.8633571,119.377783 41.8371959,123.055233 41.8985557,126.731264 C41.9056906,127.164741 42.3494786,127.929003 42.662461,127.967335 C45.9915852,128.378096 49.3354548,128.672917 52.7806393,129.010328 L52.7806393,125.66177 Z M116.239007,124.657108 L119.724622,124.657108 C117.67454,126.446855 115.815196,126.595921 113.97916,125.610662 C112.417578,124.773049 112.299139,123.212818 112.858512,121.677668 C113.53442,119.822143 116.760803,119.10615 118.863207,120.094249 C120.053777,120.653604 121.417486,120.8481 122.967652,121.28063 C122.560966,118.156382 121.417486,117.013538 118.97023,116.640635 C114.559462,115.968652 111.124266,117.186266 109.793853,119.893127 C108.514811,122.495878 109.070854,126.294475 110.984898,128.024595 C113.183386,130.012624 117.024317,129.879647 120.346306,127.868903 C121.190122,128.194957 121.884106,128.70415 122.459175,128.594361 C122.804502,128.528582 123.136511,127.508304 123.173136,126.898787 C123.271597,125.27467 123.206432,123.640616 123.206432,121.733036 C120.699719,121.870272 118.531199,121.989052 116.239007,122.11493 L116.239007,124.657108 Z M57.6366228,116.687958 C57.6366228,120.38765 57.6856155,124.049957 57.6142669,127.710372 C57.5823979,129.336382 58.5465549,129.399794 59.7456865,129.458001 C61.1174816,129.524726 61.2925234,128.742954 61.2744484,127.672514 C61.245909,126.005807 61.2668379,124.338153 61.2668379,122.640213 C64.9969411,124.54732 65.2262078,130.544531 70.9821346,129.737205 C70.9821346,126.326182 70.9868912,123.119592 70.9807076,119.913003 C70.9749997,116.814309 70.9046025,116.759415 67.4180358,117.265768 L67.4180358,123.541711 C63.8620232,121.378115 63.3911226,115.665786 57.6366228,116.687958 L57.6366228,116.687958 Z M104.972117,87.6521394 C105.25656,87.7008819 105.541003,87.7491511 105.82497,87.7974203 C105.82497,89.4442519 105.70891,91.100548 105.847326,92.735549 C106.240219,97.3840625 107.116379,101.928939 109.63974,105.968409 C113.587694,112.288362 121.038387,113.077705 125.995686,107.504505 C127.672853,105.619167 129.043697,103.228895 129.825201,100.834364 C132.779508,91.7810492 132.822317,82.6117936 129.858497,73.531978 C129.212079,71.5505746 128.178952,69.6127081 126.961745,67.9109821 C122.912476,62.2540208 115.881788,61.9989512 111.457701,67.376235 C110.084004,69.0462548 108.784984,71.0139346 108.219428,73.0559112 C106.890917,77.8539646 106.025222,82.7788429 104.972117,87.6521394 L104.972117,87.6521394 Z M73.5801738,99.894061 C69.2193493,106.070626 63.5419059,102.73106 58.4614122,103.384114 L58.4614122,90.9065248 C62.2328975,91.3788058 65.5610704,92.1194068 66.844869,96.1229112 L66.844869,80.5523076 C64.7457941,83.4314236 62.3042461,84.0868436 59.2300742,82.7693783 C58.8181551,82.5928645 58.2920783,82.0514923 58.2835165,81.6686512 C58.2097896,78.2538418 58.2407073,74.8366662 58.2407073,71.1199376 C62.6961876,72.8935942 67.6373137,72.6948386 70.8917597,77.5397415 C70.548811,73.9995268 70.2025326,71.2022792 70.0360526,68.3941473 C69.9475804,66.9015879 69.3339827,66.246641 67.8856067,65.8415583 C61.8024279,64.1407788 55.7587285,62.3013436 49.6941002,60.5343122 C49.2460312,60.4041746 48.7475426,60.4448722 48.4669049,60.4221573 C49.3768369,61.8276429 50.9122581,63.1247594 50.983131,64.4966458 C51.2685253,70.0192105 51.101094,75.56449 51.101094,81.1059838 C43.2903284,81.4708422 39.9017471,84.7186023 40.9876723,91.1762644 C42.164448,88.5337622 44.2920623,88.3615074 46.5909132,88.6156306 C47.5336656,88.7197406 48.4716614,88.8886828 49.4163165,88.9426308 C50.9412732,89.0297046 51.6081445,89.6534184 51.5696162,91.295991 C51.4716309,95.4584999 51.5634327,99.6252678 51.5515413,103.790143 C51.5439308,106.43927 51.2514016,108.985234 48.4892607,110.332513 C48.6243474,110.542152 48.6638269,110.664245 48.7099656,110.667084 C56.2624494,111.106713 63.8139818,111.555332 71.3702708,111.920612 C71.7683958,111.939593 72.522788,111.284173 72.5679754,110.882403 C72.9603926,107.407967 73.2281875,103.919807 73.5801738,99.894061 L73.5801738,99.894061 Z M86.6303025,69.5895199 C82.6504794,69.0211737 78.5193973,68.4310591 74.3887909,67.8404712 C77.2089619,70.0920875 77.4472662,73.0189994 77.469622,75.9695728 C77.539068,85.2391525 77.5576186,94.5087323 77.5771206,103.777839 C77.5833041,106.822584 77.6865217,109.922698 73.9369166,112.011051 L87.4717399,112.011051 C84.8589554,110.010718 84.2111104,108.712655 84.1597394,105.010596 C84.0883909,99.9054185 84.1088441,94.7988208 84.1026606,89.6926963 C84.1021849,89.1357076 84.1873275,88.5791921 84.232515,88.0222033 C87.1896753,94.5612606 89.7977033,101.114988 92.167427,107.75295 C92.6102638,108.993279 92.0970298,110.571019 92.0313891,111.872868 L105.047746,111.872868 C101.864649,109.951091 101.513138,107.451977 101.506479,104.804743 C101.48555,96.3992761 101.435606,87.9933364 101.440838,79.58787 C101.443217,75.487354 100.784907,71.1861894 104.491703,67.8911065 C100.28404,68.5238117 96.0763772,69.15699 91.8687144,69.7901684 C94.624196,71.2358783 94.9148225,73.5826134 94.9343245,76.0140561 C94.9809389,81.905265 94.9818902,87.796947 94.9890251,93.6886291 C94.9899764,94.2503501 94.9029311,94.8125444 94.8563167,95.3747386 C91.5595372,88.0595883 88.7198642,80.6857578 86.073308,73.2437825 C85.7327375,72.2859701 86.3929496,70.9765497 86.6303025,69.5895199 L86.6303025,69.5895199 Z M23.5895619,128.918049 C23.7636524,128.918049 23.9377429,128.916629 24.1118334,128.915682 C26.1923576,121.10317 28.2272188,113.27788 30.3648219,105.480511 C33.9393851,92.4393086 37.5429635,79.4056775 41.2221713,66.3933416 C41.9936871,63.6632923 42.5578165,60.6355829 46.7440748,59.5883305 C41.4419249,57.5160674 36.8504067,55.7215888 32.2588885,53.9271102 C34.8174482,56.6590524 34.9016395,59.7435491 34.4012482,62.963862 C34.2442813,63.9718366 34.0235764,64.9736591 33.7695755,65.9622313 C30.640703,78.1464191 27.501366,90.3282408 24.3548942,102.507696 C24.2512009,102.908047 24.0447657,103.28237 23.7983753,103.882422 C23.5106028,103.439008 23.3388906,103.275271 23.2870439,103.079828 C19.6644393,89.4806904 15.9348119,75.9080532 12.4772603,62.2672712 C9.97625512,52.3981122 8.24724149,42.3855653 9.96246106,32.1638518 C10.5232608,28.81908 11.5887328,25.5580695 12.4159005,22.2875944 C9.23375436,25.1406829 6.44259838,30.6561491 5.30197261,36.3097977 C3.5672511,44.9055016 4.45387597,53.4283284 6.51204432,61.792624 C11.245784,81.0312138 16.241135,100.206391 21.1342198,119.406176 C21.9428369,122.579166 22.770956,125.747898 23.5895619,128.918049 L23.5895619,128.918049 Z M175.141531,105.072589 C172.040246,103.497688 171.90944,101.087541 171.867107,98.7242427 C171.776732,93.6938346 171.716799,88.6605872 171.783391,83.6301791 C171.941309,71.7710986 172.11873,59.9110716 172.406026,48.0543572 C172.625304,39.0223376 171.206895,30.4976179 165.395792,23.173003 C165.110398,22.8133501 164.71798,22.5369853 163.96121,21.8413409 C164.518204,23.3883215 164.872093,24.3380891 165.202675,25.2959015 C168.488039,34.816765 168.331072,44.5770817 166.269574,54.1854924 C163.154971,68.7045846 159.413928,83.0906998 155.932593,97.5317094 C155.425543,99.6337859 154.88377,101.727344 154.358168,103.824688 C154.20358,103.818536 154.049467,103.812384 153.895354,103.806233 C149.406578,87.9337098 144.918277,72.0607138 140.350066,55.9066207 C137.576034,57.0224911 135.309528,57.9344004 133.577185,58.6309913 C134.365348,60.2896536 135.190138,61.6326732 135.635353,63.090687 C135.96974,64.1852622 135.866998,65.4270111 135.873181,66.6034546 C135.934541,78.3172543 135.981156,90.031054 136.02444,101.745327 C136.03538,104.706784 136.057261,107.679126 133.006396,110.12098 C137.270662,109.694129 140.909439,109.329744 144.267578,108.993279 C140.118421,101.839499 143.027064,94.2494037 141.826982,87.0601319 C142.108095,87.014702 142.389208,86.968799 142.670322,86.9233691 C146.428013,100.671101 150.185704,114.418359 153.943395,128.16609 C154.125096,128.154259 154.306797,128.142429 154.488498,128.130598 C158.04023,113.645105 161.591962,99.1600852 165.143694,84.6745922 C165.373912,84.7058252 165.60413,84.7370582 165.834348,84.767818 C165.834348,88.9965787 165.837677,93.2248662 165.833396,97.4531537 C165.830067,100.675833 166.140195,103.975175 163.106454,106.724626 C167.228974,106.158646 170.822088,105.665543 175.141531,105.072589 L175.141531,105.072589 Z M148.888587,0.458084196 C151.013823,2.39595071 153.214689,4.25857405 155.249074,6.28682701 C159.867705,10.89275 164.997667,15.1461186 168.831463,20.3378972 C174.261565,27.6913789 177.123594,35.998414 176.746873,45.6049318 C176.039571,63.6552474 176.206527,81.7401086 176.057171,99.8112462 C176.030534,103.05664 178.624292,105.906416 182.56416,107.26174 C183.365166,107.537158 184.179016,107.775665 185,108.442442 C180.102634,109.280055 175.205744,110.118141 170.308379,110.95528 C169.686219,111.061756 169.054071,111.288905 168.441424,111.246788 C163.666778,110.922154 162.226964,113.674918 161.291347,117.84074 C159.40061,126.257564 156.949548,134.550402 154.724424,142.892929 C154.607413,143.331138 154.441408,143.756096 154.071347,144.870547 C152.633436,140.704725 151.300644,137.174448 150.217573,133.570348 C149.656773,131.704412 148.881928,131.158307 146.851823,131.470638 C133.246127,133.563723 119.517236,134.257001 105.785966,135.060068 C89.6388338,136.00463 73.5397429,135.243207 57.4401764,134.407487 C48.689988,133.953189 39.9602529,133.009573 31.2428849,132.084887 C29.0505813,131.852059 28.2923838,132.754977 27.7101795,134.500713 C26.4430289,138.298364 25.1045298,142.072826 23.7817273,145.851547 C23.5800487,146.427938 23.3046433,146.978775 22.866563,148 C21.5309179,142.369066 20.2675725,137.195744 19.080808,132.005385 C17.5758289,125.42421 16.1983259,118.813695 14.6495863,112.243405 C11.3903837,98.4142787 7.89763351,84.6372072 4.8106188,70.7706957 C2.93700541,62.3538718 1.10667682,53.8632245 0.235748633,45.3072717 C-0.680842636,36.2993867 0.94780734,27.4093354 7.37916725,20.4547844 C13.9789098,13.3189873 21.1456356,6.70090105 28.2276944,0 C25.8375174,4.28838738 23.2665907,8.48875445 21.1061561,12.8883503 C18.7235895,17.7412981 16.6021588,22.731955 14.6063015,27.7562111 C13.8419205,29.6813005 13.5660394,31.8496288 13.3634095,33.9351423 C12.0972102,46.9758718 15.3982706,59.3365734 19.1554862,71.6267642 C20.3008685,75.3742526 21.3339958,79.1558133 22.6320641,83.6647247 C23.7522366,82.3548311 24.8053415,81.5451389 25.295744,80.4794306 C28.2281701,74.1121549 29.8796516,67.3890122 29.5248114,60.3871384 C29.2712862,55.3784988 26.5999958,51.1842837 23.6238092,47.2536563 C22.9169827,46.3199785 22.1307215,45.4464006 21.0310022,44.1251495 C21.9856461,44.4308544 22.5193334,44.544429 23.0035523,44.7654263 C41.1441635,53.0379158 60.1186016,58.7994603 79.3974603,63.7905904 C87.253889,65.8245221 94.8082754,65.1530123 102.27086,63.0992051 C110.462151,60.8447494 118.451288,57.8539518 126.500834,55.1040269 C132.088853,53.1955005 137.630734,51.1525775 143.487025,49.0651711 C146.925075,61.7358367 150.310326,74.2110595 153.695102,86.6858089 C153.936261,86.6716121 154.177419,86.6574153 154.418577,86.6432185 C155.360854,83.0395912 156.358307,79.4487412 157.234467,75.8290242 C159.135668,67.9739213 161.317508,60.1647215 162.741149,52.223018 C164.104383,44.6177793 163.918876,36.8379196 162.212219,29.2800036 C161.521565,26.2201147 159.572322,23.4375372 158.167706,20.5423315 C155.287127,14.6028534 152.385618,8.6737864 149.498855,2.73762094 C149.171127,2.06279856 148.885733,1.36810063 148.580361,0.682867247 C148.683103,0.608097306 148.785845,0.533327365 148.888587,0.458084196 L148.888587,0.458084196 Z" id="Fill-4" fill="#000000"></path>
                <path d="M175,104.977034 C170.694411,105.568177 167.112821,106.060246 163.003522,106.624497 C166.027533,103.883443 165.7184,100.593707 165.721719,97.3813424 C165.725986,93.1654976 165.722667,88.9501246 165.722667,84.7347516 C165.493187,84.703614 165.263707,84.6729482 165.034228,84.6418106 C161.493887,99.0825886 157.953546,113.523838 154.41368,127.964616 C154.232087,127.976411 154.050969,127.988205 153.869851,128 C150.124211,114.294259 146.378572,100.588989 142.632932,86.8832473 C142.35272,86.9290101 142.072508,86.9743012 141.792296,87.0200641 C142.988531,94.1873776 140.089216,101.754291 144.225066,108.88622 C140.877697,109.221186 137.25059,109.584458 133,110.010477 C136.04108,107.576082 136.01927,104.612346 136.008365,101.659934 C135.965219,89.9819121 135.918754,78.30389 135.857591,66.6258679 C135.851427,65.4525458 135.95384,64.2150614 135.620525,63.1233577 C135.176738,61.6702688 134.354594,60.3308795 133.568958,58.677755 C135.295745,57.98282 137.554982,57.0741677 140.320118,55.9617055 C144.873678,72.0659872 149.347584,87.890502 153.821964,103.715017 C153.975582,103.72115 154.129201,103.726811 154.283294,103.732945 C154.807209,101.642006 155.347719,99.5548424 155.852669,97.4591864 C159.322838,83.0622841 163.051884,68.7201086 166.156497,54.2458341 C168.211384,44.6667705 168.367847,34.9357931 165.09302,25.4440093 C164.763499,24.4891223 164.410745,23.5422557 163.855537,22 C164.60988,22.6939915 165.001039,22.9690404 165.285518,23.3280666 C171.077983,30.6303098 172.491844,39.1289923 172.273743,48.1334253 C171.987368,59.9539256 171.810043,71.7772565 171.652631,83.6005875 C171.586252,88.6151593 171.645993,93.6335054 171.736078,98.648549 C171.778276,101.004157 171.908662,103.406943 175,104.977034" id="Fill-6" fill="#FFFFFF"></path>
                <path d="M23.044855,129 C22.232826,125.818388 21.4123089,122.639149 20.6106543,119.455163 C15.7597005,100.188363 10.8073611,80.9472054 6.11390891,61.641941 C4.07346206,53.2481826 3.19494288,44.6962934 4.91425631,36.0707996 C6.04553249,30.3975573 8.8126557,24.8625014 11.9674025,22 C11.1468854,25.2813346 10.0910591,28.5541216 9.53461644,31.9104853 C7.83463703,42.1676238 9.54829172,52.2148709 12.0282339,62.1182331 C15.4555433,75.8062896 19.1535291,89.4254902 22.7444703,103.071758 C22.7963421,103.267879 22.9665758,103.432183 23.2518705,103.877608 C23.4961394,103.275476 23.7007971,102.899856 23.8035976,102.498118 C26.9225057,90.2759779 30.034812,78.0524129 33.1372154,65.8259988 C33.3890293,64.8340005 33.6078339,63.828706 33.7629776,62.8172381 C34.2595319,59.5857646 34.1760655,56.4901032 31.6395359,53.748693 C36.1915196,55.5493907 40.7435033,57.3500883 46,59.4295332 C41.8497867,60.4808899 41.2905147,63.5190923 40.5251703,66.2581282 C36.8781133,79.3155606 33.3055629,92.3948368 29.7613063,105.481236 C27.6425802,113.305628 25.6252399,121.157563 23.562158,128.997626 C23.3900381,128.998101 23.2174465,129 23.044855,129" id="Fill-8" fill="#FFFFFF"></path>
                <path d="M86.6483602,69.7422942 C86.4113753,71.1239675 85.7539791,72.4283311 86.0933415,73.3824446 C88.7305099,80.7952089 91.5601101,88.1410343 94.8451953,95.4279347 C94.8911704,94.8679116 94.9779069,94.3078884 94.9774329,93.7478653 C94.9703234,87.8794073 94.9693754,82.0100065 94.9229264,76.1415485 C94.9034936,73.719967 94.613898,71.3818232 91.8677165,69.9421678 C96.0604541,69.3114347 100.253666,68.6807015 104.446403,68.0499684 C100.752282,71.3323263 101.408256,75.6173518 101.405886,79.7020324 C101.401147,88.0750383 101.450914,96.4480442 101.471768,104.82105 C101.478404,107.458533 101.828668,109.947996 105,111.862351 L92.0302882,111.862351 C92.095696,110.565059 92.6071095,108.993883 92.1658436,107.758343 C89.8045256,101.146016 87.2057488,94.6175982 84.2590781,88.1037937 C84.2140509,88.6586314 84.1292103,89.2129978 84.1296843,89.7673641 C84.1353719,94.8537696 84.1154652,99.9406465 84.1860867,105.026581 C84.2377494,108.713871 84.8832964,110.007392 87.4868129,112 L74,112 C77.7363046,109.919241 77.6334531,106.831571 77.6272915,103.798584 C77.6078587,94.5648014 77.5893739,85.3310192 77.5197003,76.0977084 C77.4978977,73.1585297 77.2599648,70.242921 74.4497974,68 C78.5662258,68.5878357 82.6826542,69.1756715 86.6483602,69.7422942" id="Fill-10" fill="#FFFFFF"></path>
                <path d="M74,99.0895103 C73.6452835,103.076256 73.3762543,106.530623 72.981327,109.9714 C72.9353718,110.369278 72.1766328,111.018348 71.7754825,111 C64.1713376,110.63781 56.5710223,110.193537 48.970707,109.758168 C48.9242731,109.755356 48.8845411,109.634914 48.7485903,109.426837 C51.5283996,108.09261 51.8223212,105.571311 51.8299804,102.947848 C51.8419479,98.8233211 51.7495588,94.6969197 51.848171,90.5747361 C51.8874243,88.9480764 51.2162873,88.3304049 49.6815761,88.2441746 C48.7303998,88.1907493 47.7864039,88.0239124 46.8380998,87.9203423 C44.5245441,87.6686811 42.3833203,87.8392671 41.1990172,90.4561695 C40.1061458,84.0610675 43.5164025,80.8447707 51.3771304,80.483447 C51.3771304,74.9956378 51.545154,69.5040795 51.2579342,64.035016 C51.186608,62.67642 49.641844,61.3918696 48.7260915,60 C49.0080456,60.0229635 49.5102016,59.9821916 49.9611367,60.111537 C56.0640793,61.8609812 62.1469165,63.6825965 68.2685284,65.3668993 C69.726169,65.7680577 70.3441703,66.4166596 70.4327298,67.8947595 C70.6002747,70.6756869 70.9492468,73.4458355 71.2943892,76.9517536 C68.0186471,72.1537868 63.0463933,72.3506169 58.5624131,70.594143 C58.5624131,74.2748649 58.5312976,77.6589358 58.6054961,81.0406635 C58.613634,81.4197957 59.1430758,81.9559232 59.5581085,82.1307271 C62.6519447,83.4354291 65.1091103,82.7863586 67.2211334,79.9351347 L67.2211334,95.3548944 C65.9296016,91.3901749 62.579661,90.6567487 58.7845297,90.189043 L58.7845297,102.545752 C63.8975213,101.899025 69.6112811,105.206238 74,99.0895103" id="Fill-12" fill="#FFFFFF"></path>
                <path d="M126.309211,86.3957249 C125.474801,82.762375 124.644184,78.4562177 123.449936,74.2533131 C122.897613,72.3095946 121.374816,70.8526385 119.098679,70.8169521 C116.841506,70.7822173 115.329612,72.1597118 114.545931,74.0468079 C110.969348,82.6591224 111.01012,91.3727862 114.176136,100.105007 C114.255784,100.324359 114.396117,100.524203 114.525545,100.722143 C116.407708,103.595611 119.786119,104.038122 122.142852,101.523898 C123.12992,100.470911 124.008895,99.0691501 124.330333,97.6840425 C125.128237,94.2476814 125.576732,90.7294796 126.309211,86.3957249 M105,87.284078 C106.049649,82.3840993 106.912505,77.4322564 108.236656,72.607457 C108.800357,70.5547761 110.095114,68.575847 111.46383,66.8971594 C115.873401,61.4904341 122.881494,61.7464244 126.917003,67.4348343 C128.130689,69.1458776 129.160427,71.0943542 129.804724,73.0866062 C132.758344,82.2161354 132.71615,91.4355942 129.771063,100.538002 C128.992122,102.946119 127.626251,105.349478 125.954587,107.245139 C121.013554,112.848853 113.586834,112.055188 109.651834,105.700632 C107.136752,101.639046 106.263941,97.069285 105.872337,92.3953201 C105.734375,90.7513672 105.850055,89.0860026 105.850055,87.4301543 C105.566545,87.3816208 105.28351,87.3330873 105,87.284078" id="Fill-14" fill="#FFFFFF"></path>
                <path d="M58.022483,116.119044 C63.6175269,115.115797 64.0753789,120.722831 67.5328551,122.845905 L67.5328551,116.686157 C70.9228097,116.189642 70.9912563,116.24352 70.9972685,119.28438 C71.0028182,122.432066 70.9981935,125.579288 70.9981935,128.927159 C65.4017622,129.719074 65.1788484,123.83336 61.5521057,121.961097 C61.5521057,123.627602 61.5317567,125.26438 61.5595053,126.900229 C61.5770794,127.950852 61.4073504,128.718149 60.073105,128.653124 C58.9072011,128.595995 57.9697607,128.533292 58.0007466,126.937387 C58.0701181,123.345206 58.022483,119.750239 58.022483,116.119044" id="Fill-16" fill="#FFFFFF"></path>
                <path d="M116.072805,124.204866 L116.072805,121.660565 C118.344865,121.534581 120.494342,121.415702 122.97904,121.278351 C122.97904,123.187524 123.043633,124.822944 122.946036,126.448417 C122.909732,127.058443 122.580639,128.079573 122.238345,128.145407 C121.668326,128.255287 120.980437,127.745669 120.144032,127.419343 C116.851218,129.431766 113.044019,129.564854 110.864839,127.575165 C108.967605,125.843601 108.416445,122.041831 109.684254,119.436906 C111.002983,116.727785 114.40801,115.509153 118.780041,116.181698 C121.205805,116.554912 122.339242,117.698711 122.742357,120.825568 C121.205805,120.392677 119.854072,120.198018 118.673958,119.638196 C116.590018,118.649272 113.391971,119.365863 112.721998,121.222938 C112.167538,122.75937 112.284936,124.320904 113.832804,125.159216 C115.652716,126.145298 117.49573,125.996107 119.527808,124.204866 L116.072805,124.204866 Z" id="Fill-18" fill="#FFFFFF"></path>
                <path d="M52.6435727,125.57455 L52.6435727,129 C49.2864816,128.654841 46.0281148,128.35325 42.7836529,127.933057 C42.479137,127.893361 42.046233,127.112033 42.0392806,126.668603 C41.9799533,122.90816 42.0054455,119.146266 42.0054455,115 C45.4371592,115.278354 48.6412971,115.418257 51.7921332,115.922199 C52.2690691,115.998686 52.4975719,117.76805 53,119.211618 C50.0952796,119.073651 47.8718962,118.968603 45.6480493,118.863071 C45.629046,119.198064 45.6100427,119.533057 45.5910394,119.867566 C47.2030735,120.015698 48.8299394,120.07379 50.4211163,120.353596 C51.1316534,120.478492 52.1420716,120.884163 52.3719649,121.448133 C53.043105,123.096473 52.2950248,123.956224 50.52772,123.845851 C48.9050256,123.744675 47.2841851,123.60574 45.6628811,123.483748 C45.6105062,123.851176 45.5581313,124.218603 45.5052929,124.58603 C47.7907846,124.902628 50.0762763,125.219225 52.6435727,125.57455" id="Fill-20" fill="#FFFFFF"></path>
                <path d="M86.8846709,120.249308 C84.3701107,120.361033 82.0360236,120.464607 79.7019365,120.56818 C79.7168956,120.966171 79.7323371,121.364162 79.7477787,121.762633 C81.4227045,121.762633 83.0985954,121.786608 84.7730387,121.754482 C86.0016072,121.730986 86.9334083,121.800994 86.9430593,123.474954 C86.9527102,125.235226 85.8954465,125.126857 84.7325046,125.107197 C83.5314414,125.086579 82.3274829,125.045341 81.1297975,125.109115 C80.617331,125.135968 80.1174108,125.405931 79.6117,125.565607 C79.6377576,125.841323 79.6633327,126.11704 79.6893903,126.392757 L87,126.392757 L87,129.987624 C83.7046763,129.987624 80.5198562,130.03989 77.3408268,129.929604 C76.8857835,129.91378 76.0900611,129.124031 76.0765497,128.673774 C75.9708716,125.178165 75.98004,121.676801 76.0707591,118.179754 C76.0813752,117.780324 76.8037503,117.07305 77.2119863,117.061063 C80.3900507,116.967559 83.572458,117.009276 86.8846709,117.009276 L86.8846709,120.249308 Z" id="Fill-22" fill="#FFFFFF"></path>
                <path d="M98.1086273,120.218782 L98.1086273,120.244251 C97.7055718,120.244251 97.2504306,120.123272 96.9111436,120.27168 C96.351831,120.516088 95.8669962,120.933884 95.3510073,121.279189 C95.8431439,121.631842 96.2997454,122.200495 96.8356924,122.290128 C97.7746948,122.446372 98.7852542,122.42825 99.7198757,122.245066 C100.202763,122.150536 100.586834,121.545638 101.015689,121.170945 C100.610687,120.853557 100.248034,120.398047 99.7894855,120.255517 C99.2744702,120.095843 98.6728076,120.218782 98.1086273,120.218782 L98.1086273,120.218782 Z M92,117.075764 C95.3013555,117.075764 98.5277466,116.86858 101.713735,117.139437 C104.39493,117.367682 105.343181,119.653068 104.31169,122.217638 C104.050775,122.866127 104.232832,123.725229 104.315098,124.476575 C104.497154,126.146778 104.745413,127.810124 105,129.730612 L101.591066,129.730612 C100.693926,125.103024 100.589755,125.034942 95.5048304,125.864166 C95.4113682,127.144492 95.3135251,128.482613 95.2025388,130 L92,130 L92,117.075764 Z" id="Fill-24" fill="#FFFFFF"></path>
                <path d="M139,115.251415 C137.104895,119.237513 133.194406,122.26055 134.518415,127.471242 C133.384149,127.651608 132.508625,127.791155 131.193473,128 C132.523543,122.710991 128.468531,120.022107 126,115.787293 C127.755711,115.997563 129.210723,115.796312 130.201399,116.392945 C131.241492,117.019481 131.836364,118.410676 132.680653,119.540814 C134.881119,118.13538 135.006993,113.937113 139,115.251415" id="Fill-26" fill="#FFFFFF"></path>
                <path d="M126,86.4089846 C125.291712,90.6953303 124.858029,94.1750449 124.086476,97.5738139 C123.775655,98.9437692 122.925709,100.330196 121.97124,101.371663 C119.69234,103.858384 116.425505,103.420713 114.605503,100.57868 C114.48035,100.382905 114.344652,100.185247 114.267634,99.9682943 C111.20618,91.3315995 111.166754,82.7132586 114.625216,74.1951583 C115.383016,72.3287061 116.844977,70.9662806 119.027604,71.0006354 C121.228569,71.0359314 122.701074,72.4769492 123.235156,74.3994045 C124.389963,78.5563315 125.193148,82.8153817 126,86.4089846" id="Fill-28" fill="#000000"></path>
                <path d="M97.9208559,120.040667 C98.5184326,120.040667 99.1557102,119.930031 99.7012117,120.073726 C100.186904,120.201994 100.571023,120.611921 101,120.897548 C100.545759,121.234747 100.138953,121.779113 99.6274813,121.864184 C98.6375354,122.029037 97.5671565,122.045346 96.5725703,121.904736 C96.0048982,121.824073 95.5212684,121.312325 95,120.994961 C95.5465326,120.68421 96.060067,120.308222 96.6524878,120.088272 C97.0118587,119.954715 97.4939417,120.063588 97.9208559,120.063588 L97.9208559,120.040667 Z" id="Fill-30" fill="#000000"></path>
            </g>
        </g>
    </g>
</svg>